%
M48
M72
T01C0.0236
T02C0.0315
T03C0.0320
T04C0.0400
T05C0.1181
T06C0.1890
%
T01
X15970Y9720
X16720Y8720
X16720Y17220
X16720Y18720
X15970Y19720
X20970Y28720
T02
X14970Y19220
X14970Y18220
X14970Y17220
X14970Y16220
X14970Y15220
X14970Y14220
X14970Y13220
X14970Y12220
X14970Y11220
X14970Y10220
X14970Y9220
X14970Y8220
X14970Y7220
X14970Y6220
X14970Y5220
X5970Y5220
X5970Y6220
X5970Y7220
X5970Y8220
X5970Y9220
X5970Y10220
X5970Y11220
X5970Y12220
X5970Y13220
X5970Y14220
X5970Y15220
X5970Y16220
X5970Y17220
X5970Y18220
X5970Y19220
T03
X13970Y25720
X13970Y27220
X13970Y28720
X13970Y30220
X15470Y30220
X15470Y28720
X15470Y27220
X15470Y25720
X16970Y25720
X16970Y27220
X16970Y28720
X16970Y30220
T04
X18220Y21720
X18220Y20720
X18220Y19720
X18220Y18720
X18220Y17720
X18220Y16720
X18220Y15720
X18220Y14720
X18220Y11720
X18220Y10720
X18220Y9720
X18220Y8720
X18220Y7720
X18220Y6720
X24470Y24720
X24470Y25720
X24470Y26720
X24470Y27720
X24470Y28720
X24470Y29720
T05
X14470Y20720
X14470Y20720
X6470Y20720
X6470Y20720
X6470Y3720
X6470Y3720
X14470Y3720
X14470Y3720
T06
X3720Y3720
X3720Y32470
X24720Y32470
X24720Y3720
M30
