G75*
%MOIN*%
%OFA0B0*%
%FSLAX25Y25*%
%IPPOS*%
%LPD*%
%AMOC8*
5,1,8,0,0,1.08239X$1,22.5*
%
%ADD10C,0.06400*%
%ADD11C,0.05550*%
%ADD12C,0.15811*%
%ADD13OC8,0.07500*%
%ADD14C,0.01600*%
%ADD15C,0.04362*%
%ADD16C,0.02402*%
D10*
X0175801Y0067201D02*
X0188601Y0067201D01*
X0188601Y0077201D02*
X0175801Y0077201D01*
X0175801Y0087201D02*
X0188601Y0087201D01*
X0188601Y0097201D02*
X0175801Y0097201D01*
X0175801Y0107201D02*
X0188601Y0107201D01*
X0188601Y0117201D02*
X0175801Y0117201D01*
X0175801Y0147201D02*
X0188601Y0147201D01*
X0188601Y0157201D02*
X0175801Y0157201D01*
X0175801Y0167201D02*
X0188601Y0167201D01*
X0188601Y0177201D02*
X0175801Y0177201D01*
X0175801Y0187201D02*
X0188601Y0187201D01*
X0188601Y0197201D02*
X0175801Y0197201D01*
X0175801Y0207201D02*
X0188601Y0207201D01*
X0188601Y0217201D02*
X0175801Y0217201D01*
X0238301Y0247201D02*
X0251101Y0247201D01*
X0251101Y0257201D02*
X0238301Y0257201D01*
X0238301Y0267201D02*
X0251101Y0267201D01*
X0251101Y0277201D02*
X0238301Y0277201D01*
X0238301Y0287201D02*
X0251101Y0287201D01*
X0251101Y0297201D02*
X0238301Y0297201D01*
D11*
X0155250Y0192201D02*
X0144151Y0192201D01*
X0144151Y0182201D02*
X0155250Y0182201D01*
X0155250Y0172201D02*
X0144151Y0172201D01*
X0144151Y0162201D02*
X0155250Y0162201D01*
X0155250Y0152201D02*
X0144151Y0152201D01*
X0144151Y0142201D02*
X0155250Y0142201D01*
X0155250Y0132201D02*
X0144151Y0132201D01*
X0144151Y0122201D02*
X0155250Y0122201D01*
X0155250Y0112201D02*
X0144151Y0112201D01*
X0144151Y0102201D02*
X0155250Y0102201D01*
X0155250Y0092201D02*
X0144151Y0092201D01*
X0144151Y0082201D02*
X0155250Y0082201D01*
X0155250Y0072201D02*
X0144151Y0072201D01*
X0144151Y0062201D02*
X0155250Y0062201D01*
X0155250Y0052201D02*
X0144151Y0052201D01*
X0065250Y0052201D02*
X0054151Y0052201D01*
X0054151Y0062201D02*
X0065250Y0062201D01*
X0065250Y0072201D02*
X0054151Y0072201D01*
X0054151Y0082201D02*
X0065250Y0082201D01*
X0065250Y0092201D02*
X0054151Y0092201D01*
X0054151Y0102201D02*
X0065250Y0102201D01*
X0065250Y0112201D02*
X0054151Y0112201D01*
X0054151Y0122201D02*
X0065250Y0122201D01*
X0065250Y0132201D02*
X0054151Y0132201D01*
X0054151Y0142201D02*
X0065250Y0142201D01*
X0065250Y0152201D02*
X0054151Y0152201D01*
X0054151Y0162201D02*
X0065250Y0162201D01*
X0065250Y0172201D02*
X0054151Y0172201D01*
X0054151Y0182201D02*
X0065250Y0182201D01*
X0065250Y0192201D02*
X0054151Y0192201D01*
D12*
X0064701Y0207201D03*
X0144701Y0207201D03*
X0144701Y0037201D03*
X0064701Y0037201D03*
D13*
X0139701Y0257201D03*
X0139701Y0272201D03*
X0139701Y0287201D03*
X0139701Y0302201D03*
X0154701Y0302201D03*
X0154701Y0287201D03*
X0154701Y0272201D03*
X0154701Y0257201D03*
X0169701Y0257201D03*
X0169701Y0272201D03*
X0169701Y0287201D03*
X0169701Y0302201D03*
D14*
X0174701Y0294701D02*
X0177201Y0297201D01*
X0244701Y0297201D01*
X0244701Y0287201D02*
X0209701Y0287201D01*
X0182201Y0277201D02*
X0244701Y0277201D01*
X0244701Y0267201D02*
X0182201Y0267201D01*
X0179701Y0264701D01*
X0159701Y0264701D01*
X0154701Y0269701D01*
X0154701Y0272201D01*
X0159701Y0279701D02*
X0179701Y0279701D01*
X0182201Y0277201D01*
X0169701Y0287201D02*
X0164701Y0292201D01*
X0159701Y0292201D01*
X0157201Y0294701D01*
X0147201Y0294701D01*
X0139701Y0302201D01*
X0154701Y0302201D02*
X0162201Y0294701D01*
X0174701Y0294701D01*
X0159701Y0279701D02*
X0154701Y0284701D01*
X0154701Y0287201D01*
X0154701Y0257201D02*
X0154701Y0254701D01*
X0159701Y0249701D01*
X0174701Y0249701D01*
X0182201Y0257201D01*
X0244701Y0257201D01*
X0182201Y0197201D02*
X0159701Y0197201D01*
X0167201Y0187201D02*
X0182201Y0187201D01*
X0167201Y0172201D02*
X0149701Y0172201D01*
X0149701Y0146776D02*
X0143791Y0146776D01*
X0143080Y0146663D01*
X0142395Y0146440D01*
X0141753Y0146113D01*
X0141171Y0145690D01*
X0140662Y0145181D01*
X0140238Y0144598D01*
X0139912Y0143957D01*
X0139689Y0143272D01*
X0139576Y0142561D01*
X0139576Y0142201D01*
X0149701Y0142201D01*
X0149701Y0142201D01*
X0149701Y0146776D01*
X0155126Y0146776D01*
X0154701Y0147201D01*
X0119701Y0147201D01*
X0079701Y0097201D01*
X0054701Y0097201D01*
X0054276Y0096776D01*
X0059701Y0096776D01*
X0059701Y0092201D01*
X0059701Y0092201D01*
X0069825Y0092201D01*
X0069825Y0092561D01*
X0069713Y0093272D01*
X0069490Y0093957D01*
X0069163Y0094598D01*
X0068740Y0095181D01*
X0068231Y0095690D01*
X0067648Y0096113D01*
X0067007Y0096440D01*
X0066322Y0096663D01*
X0065610Y0096776D01*
X0059701Y0096776D01*
X0059701Y0092201D01*
X0059701Y0092201D01*
X0069825Y0092201D01*
X0069825Y0091841D01*
X0069713Y0091130D01*
X0069490Y0090445D01*
X0069163Y0089803D01*
X0068740Y0089220D01*
X0068231Y0088711D01*
X0067648Y0088288D01*
X0067007Y0087961D01*
X0066322Y0087739D01*
X0065610Y0087626D01*
X0059701Y0087626D01*
X0059701Y0092201D01*
X0059701Y0092201D01*
X0059701Y0087626D01*
X0054276Y0087626D01*
X0054701Y0087201D01*
X0079701Y0087201D01*
X0119701Y0047201D01*
X0154701Y0047201D01*
X0155126Y0047626D01*
X0149701Y0047626D01*
X0149701Y0052201D01*
X0149701Y0052201D01*
X0149701Y0056776D01*
X0155126Y0056776D01*
X0154701Y0057201D01*
X0129701Y0057201D01*
X0124701Y0062201D01*
X0124701Y0132201D01*
X0129701Y0137201D01*
X0154701Y0137201D01*
X0155126Y0137626D01*
X0149701Y0137626D01*
X0149701Y0142201D01*
X0149701Y0146776D01*
X0149701Y0145286D02*
X0149701Y0145286D01*
X0149701Y0143688D02*
X0149701Y0143688D01*
X0149701Y0142201D02*
X0149701Y0142201D01*
X0149701Y0142201D01*
X0149701Y0137626D01*
X0143791Y0137626D01*
X0143080Y0137739D01*
X0142395Y0137961D01*
X0141753Y0138288D01*
X0141171Y0138711D01*
X0140662Y0139220D01*
X0140238Y0139803D01*
X0139912Y0140445D01*
X0139689Y0141130D01*
X0139576Y0141841D01*
X0139576Y0142201D01*
X0149701Y0142201D01*
X0149701Y0142089D02*
X0149701Y0142089D01*
X0149701Y0140491D02*
X0149701Y0140491D01*
X0149701Y0138892D02*
X0149701Y0138892D01*
X0154794Y0137294D02*
X0111775Y0137294D01*
X0113054Y0138892D02*
X0140990Y0138892D01*
X0139897Y0140491D02*
X0114333Y0140491D01*
X0115611Y0142089D02*
X0139576Y0142089D01*
X0139824Y0143688D02*
X0116890Y0143688D01*
X0118169Y0145286D02*
X0140767Y0145286D01*
X0128195Y0135695D02*
X0110496Y0135695D01*
X0109217Y0134097D02*
X0126597Y0134097D01*
X0124998Y0132498D02*
X0107939Y0132498D01*
X0106660Y0130900D02*
X0124701Y0130900D01*
X0124701Y0129301D02*
X0105381Y0129301D01*
X0104102Y0127703D02*
X0124701Y0127703D01*
X0124701Y0126104D02*
X0102823Y0126104D01*
X0101545Y0124506D02*
X0124701Y0124506D01*
X0124701Y0122907D02*
X0100266Y0122907D01*
X0098987Y0121308D02*
X0124701Y0121308D01*
X0124701Y0119710D02*
X0097708Y0119710D01*
X0096429Y0118111D02*
X0124701Y0118111D01*
X0124701Y0116513D02*
X0095151Y0116513D01*
X0093872Y0114914D02*
X0124701Y0114914D01*
X0124701Y0113316D02*
X0092593Y0113316D01*
X0091314Y0111717D02*
X0124701Y0111717D01*
X0124701Y0110119D02*
X0090035Y0110119D01*
X0088756Y0108520D02*
X0124701Y0108520D01*
X0124701Y0106922D02*
X0087478Y0106922D01*
X0086199Y0105323D02*
X0124701Y0105323D01*
X0124701Y0103725D02*
X0084920Y0103725D01*
X0083641Y0102126D02*
X0124701Y0102126D01*
X0124701Y0100528D02*
X0082362Y0100528D01*
X0081084Y0098929D02*
X0124701Y0098929D01*
X0124701Y0097331D02*
X0079805Y0097331D01*
X0080760Y0086141D02*
X0124701Y0086141D01*
X0124701Y0084543D02*
X0082359Y0084543D01*
X0083957Y0082944D02*
X0124701Y0082944D01*
X0124701Y0081346D02*
X0085556Y0081346D01*
X0087154Y0079747D02*
X0124701Y0079747D01*
X0124701Y0078149D02*
X0088753Y0078149D01*
X0090351Y0076550D02*
X0124701Y0076550D01*
X0124701Y0074952D02*
X0091950Y0074952D01*
X0093548Y0073353D02*
X0124701Y0073353D01*
X0124701Y0071755D02*
X0095147Y0071755D01*
X0096745Y0070156D02*
X0124701Y0070156D01*
X0124701Y0068558D02*
X0098344Y0068558D01*
X0099942Y0066959D02*
X0124701Y0066959D01*
X0124701Y0065361D02*
X0101541Y0065361D01*
X0103139Y0063762D02*
X0124701Y0063762D01*
X0124738Y0062164D02*
X0104738Y0062164D01*
X0106337Y0060565D02*
X0126337Y0060565D01*
X0127935Y0058967D02*
X0107935Y0058967D01*
X0109534Y0057368D02*
X0129534Y0057368D01*
X0119125Y0047777D02*
X0142962Y0047777D01*
X0143080Y0047739D02*
X0143791Y0047626D01*
X0149701Y0047626D01*
X0149701Y0052201D01*
X0149701Y0056776D01*
X0143791Y0056776D01*
X0143080Y0056663D01*
X0142395Y0056440D01*
X0141753Y0056113D01*
X0141171Y0055690D01*
X0140662Y0055181D01*
X0140238Y0054598D01*
X0139912Y0053957D01*
X0139689Y0053272D01*
X0139576Y0052561D01*
X0139576Y0052201D01*
X0149701Y0052201D01*
X0149701Y0052201D01*
X0149701Y0052201D01*
X0139576Y0052201D01*
X0139576Y0051841D01*
X0139689Y0051130D01*
X0139912Y0050445D01*
X0140238Y0049803D01*
X0140662Y0049220D01*
X0141171Y0048711D01*
X0141753Y0048288D01*
X0142395Y0047961D01*
X0143080Y0047739D01*
X0140549Y0049375D02*
X0117526Y0049375D01*
X0115928Y0050974D02*
X0139740Y0050974D01*
X0139578Y0052573D02*
X0114329Y0052573D01*
X0112731Y0054171D02*
X0140021Y0054171D01*
X0141280Y0055770D02*
X0111132Y0055770D01*
X0124701Y0087740D02*
X0066325Y0087740D01*
X0068825Y0089338D02*
X0124701Y0089338D01*
X0124701Y0090937D02*
X0069650Y0090937D01*
X0069825Y0092535D02*
X0124701Y0092535D01*
X0124701Y0094134D02*
X0069400Y0094134D01*
X0068173Y0095732D02*
X0124701Y0095732D01*
X0149701Y0055770D02*
X0149701Y0055770D01*
X0149701Y0054171D02*
X0149701Y0054171D01*
X0149701Y0052573D02*
X0149701Y0052573D01*
X0149701Y0050974D02*
X0149701Y0050974D01*
X0149701Y0049375D02*
X0149701Y0049375D01*
X0149701Y0047777D02*
X0149701Y0047777D01*
X0167201Y0087201D02*
X0182201Y0087201D01*
X0182201Y0097201D02*
X0159701Y0097201D01*
X0155017Y0146885D02*
X0119448Y0146885D01*
X0059701Y0095732D02*
X0059701Y0095732D01*
X0059701Y0094134D02*
X0059701Y0094134D01*
X0059701Y0092535D02*
X0059701Y0092535D01*
X0059701Y0090937D02*
X0059701Y0090937D01*
X0059701Y0089338D02*
X0059701Y0089338D01*
X0059701Y0087740D02*
X0059701Y0087740D01*
D15*
X0159701Y0097201D03*
X0167201Y0087201D03*
X0167201Y0172201D03*
X0167201Y0187201D03*
X0159701Y0197201D03*
X0209701Y0287201D03*
D16*
X0025020Y0027499D02*
X0026063Y0026063D01*
X0027499Y0025020D01*
X0029187Y0024471D01*
X0030075Y0024402D01*
X0254327Y0024402D01*
X0255214Y0024471D01*
X0256902Y0025020D01*
X0258338Y0026063D01*
X0259382Y0027499D01*
X0259930Y0029187D01*
X0260000Y0030075D01*
X0260000Y0333028D01*
X0259930Y0333915D01*
X0259382Y0335603D01*
X0258338Y0337039D01*
X0256902Y0338082D01*
X0255214Y0338631D01*
X0254327Y0338701D01*
X0132201Y0338701D01*
X0132201Y0257201D01*
X0133950Y0255452D01*
X0133950Y0259583D01*
X0137319Y0262952D01*
X0142083Y0262952D01*
X0145452Y0259583D01*
X0145452Y0254819D01*
X0142083Y0251450D01*
X0137952Y0251450D01*
X0152201Y0237201D01*
X0152201Y0213710D01*
X0153099Y0212812D01*
X0154607Y0209171D01*
X0154607Y0205230D01*
X0153099Y0201589D01*
X0150312Y0198803D01*
X0146671Y0197294D01*
X0143669Y0197294D01*
X0142358Y0197201D01*
X0024402Y0197201D01*
X0024402Y0030075D01*
X0024471Y0029187D01*
X0025020Y0027499D01*
X0025382Y0027001D02*
X0031568Y0027001D01*
X0032704Y0026345D02*
X0030048Y0027879D01*
X0027879Y0030048D01*
X0026345Y0032704D01*
X0025551Y0035667D01*
X0025551Y0038734D01*
X0026345Y0041697D01*
X0027879Y0044354D01*
X0030048Y0046523D01*
X0032704Y0048056D01*
X0035667Y0048850D01*
X0038734Y0048850D01*
X0041697Y0048056D01*
X0044354Y0046523D01*
X0046523Y0044354D01*
X0048056Y0041697D01*
X0048850Y0038734D01*
X0048850Y0035667D01*
X0048056Y0032704D01*
X0046523Y0030048D01*
X0044354Y0027879D01*
X0041697Y0026345D01*
X0038734Y0025551D01*
X0035667Y0025551D01*
X0032704Y0026345D01*
X0028789Y0024601D02*
X0255613Y0024601D01*
X0254354Y0027879D02*
X0251697Y0026345D01*
X0248734Y0025551D01*
X0245667Y0025551D01*
X0242704Y0026345D01*
X0240048Y0027879D01*
X0237879Y0030048D01*
X0236345Y0032704D01*
X0235551Y0035667D01*
X0235551Y0038734D01*
X0236345Y0041697D01*
X0237879Y0044354D01*
X0240048Y0046523D01*
X0242704Y0048056D01*
X0245667Y0048850D01*
X0248734Y0048850D01*
X0251697Y0048056D01*
X0254354Y0046523D01*
X0256523Y0044354D01*
X0258056Y0041697D01*
X0258850Y0038734D01*
X0258850Y0035667D01*
X0258056Y0032704D01*
X0256523Y0030048D01*
X0254354Y0027879D01*
X0252833Y0027001D02*
X0259020Y0027001D01*
X0259947Y0029401D02*
X0255876Y0029401D01*
X0257535Y0031801D02*
X0260000Y0031801D01*
X0260000Y0034201D02*
X0258458Y0034201D01*
X0258850Y0036601D02*
X0260000Y0036601D01*
X0260000Y0039001D02*
X0258779Y0039001D01*
X0258136Y0041401D02*
X0260000Y0041401D01*
X0260000Y0043802D02*
X0256842Y0043802D01*
X0254675Y0046202D02*
X0260000Y0046202D01*
X0260000Y0048602D02*
X0249662Y0048602D01*
X0244739Y0048602D02*
X0159777Y0048602D01*
X0159575Y0048114D02*
X0160002Y0049144D01*
X0160002Y0051192D01*
X0160026Y0051251D01*
X0160026Y0053151D01*
X0160002Y0053210D01*
X0160002Y0055258D01*
X0159575Y0056287D01*
X0158787Y0057075D01*
X0157782Y0058080D01*
X0157956Y0058152D01*
X0159299Y0059496D01*
X0160026Y0061251D01*
X0160026Y0063151D01*
X0159299Y0064906D01*
X0157956Y0066249D01*
X0156200Y0066976D01*
X0143201Y0066976D01*
X0141446Y0066249D01*
X0140103Y0064906D01*
X0139376Y0063151D01*
X0139376Y0061251D01*
X0139893Y0060002D01*
X0130861Y0060002D01*
X0127502Y0063361D01*
X0127502Y0131041D01*
X0130861Y0134400D01*
X0139893Y0134400D01*
X0139376Y0133151D01*
X0139376Y0131251D01*
X0140103Y0129496D01*
X0141446Y0128152D01*
X0143201Y0127425D01*
X0156200Y0127425D01*
X0157956Y0128152D01*
X0159299Y0129496D01*
X0160026Y0131251D01*
X0160026Y0133151D01*
X0159299Y0134906D01*
X0157956Y0136249D01*
X0157782Y0136321D01*
X0159575Y0138114D01*
X0160002Y0139144D01*
X0160002Y0141192D01*
X0160026Y0141251D01*
X0160026Y0143151D01*
X0160002Y0143210D01*
X0160002Y0145258D01*
X0159575Y0146287D01*
X0158787Y0147075D01*
X0157782Y0148080D01*
X0157956Y0148152D01*
X0159299Y0149496D01*
X0160026Y0151251D01*
X0160026Y0153151D01*
X0159299Y0154906D01*
X0157956Y0156249D01*
X0156200Y0156976D01*
X0143201Y0156976D01*
X0141446Y0156249D01*
X0140103Y0154906D01*
X0139376Y0153151D01*
X0139376Y0151251D01*
X0139893Y0150002D01*
X0120098Y0150002D01*
X0119945Y0150046D01*
X0119546Y0150002D01*
X0119144Y0150002D01*
X0118996Y0149941D01*
X0118838Y0149923D01*
X0118486Y0149729D01*
X0118114Y0149575D01*
X0118001Y0149462D01*
X0117862Y0149385D01*
X0117611Y0149072D01*
X0117326Y0148787D01*
X0117265Y0148640D01*
X0078355Y0100002D01*
X0069508Y0100002D01*
X0070026Y0101251D01*
X0070026Y0103151D01*
X0069299Y0104906D01*
X0067956Y0106249D01*
X0066200Y0106976D01*
X0053201Y0106976D01*
X0051446Y0106249D01*
X0050103Y0104906D01*
X0049376Y0103151D01*
X0049376Y0101251D01*
X0050103Y0099496D01*
X0051446Y0098152D01*
X0051619Y0098080D01*
X0049826Y0096287D01*
X0049400Y0095258D01*
X0049400Y0093210D01*
X0049376Y0093151D01*
X0049376Y0091251D01*
X0049400Y0091192D01*
X0049400Y0089144D01*
X0049826Y0088114D01*
X0050614Y0087326D01*
X0051619Y0086321D01*
X0051446Y0086249D01*
X0050103Y0084906D01*
X0049376Y0083151D01*
X0049376Y0081251D01*
X0050103Y0079496D01*
X0051446Y0078152D01*
X0053201Y0077425D01*
X0066200Y0077425D01*
X0067956Y0078152D01*
X0069299Y0079496D01*
X0070026Y0081251D01*
X0070026Y0083151D01*
X0069508Y0084400D01*
X0078541Y0084400D01*
X0118114Y0044826D01*
X0119144Y0044400D01*
X0137890Y0044400D01*
X0136303Y0042812D01*
X0134794Y0039171D01*
X0134794Y0035230D01*
X0136303Y0031589D01*
X0139089Y0028803D01*
X0142730Y0027294D01*
X0146671Y0027294D01*
X0150312Y0028803D01*
X0153099Y0031589D01*
X0154607Y0035230D01*
X0154607Y0039171D01*
X0153099Y0042812D01*
X0151511Y0044400D01*
X0155258Y0044400D01*
X0156287Y0044826D01*
X0157075Y0045614D01*
X0159575Y0048114D01*
X0157663Y0046202D02*
X0239727Y0046202D01*
X0237560Y0043802D02*
X0152110Y0043802D01*
X0153683Y0041401D02*
X0236266Y0041401D01*
X0235623Y0039001D02*
X0154607Y0039001D01*
X0154607Y0036601D02*
X0235551Y0036601D01*
X0235944Y0034201D02*
X0154181Y0034201D01*
X0153187Y0031801D02*
X0236866Y0031801D01*
X0238525Y0029401D02*
X0150911Y0029401D01*
X0138491Y0029401D02*
X0070911Y0029401D01*
X0070312Y0028803D02*
X0073099Y0031589D01*
X0074607Y0035230D01*
X0074607Y0039171D01*
X0073099Y0042812D01*
X0070312Y0045599D01*
X0066671Y0047107D01*
X0062730Y0047107D01*
X0059089Y0045599D01*
X0056303Y0042812D01*
X0054794Y0039171D01*
X0054794Y0035230D01*
X0056303Y0031589D01*
X0059089Y0028803D01*
X0062730Y0027294D01*
X0066671Y0027294D01*
X0070312Y0028803D01*
X0073187Y0031801D02*
X0136215Y0031801D01*
X0135221Y0034201D02*
X0074181Y0034201D01*
X0074607Y0036601D02*
X0134794Y0036601D01*
X0134794Y0039001D02*
X0074607Y0039001D01*
X0073683Y0041401D02*
X0135718Y0041401D01*
X0137292Y0043802D02*
X0072110Y0043802D01*
X0068857Y0046202D02*
X0116739Y0046202D01*
X0114339Y0048602D02*
X0068688Y0048602D01*
X0068492Y0048406D02*
X0069046Y0048959D01*
X0069506Y0049593D01*
X0069861Y0050291D01*
X0070103Y0051036D01*
X0070226Y0051809D01*
X0070226Y0052201D01*
X0070226Y0052592D01*
X0070103Y0053366D01*
X0069861Y0054111D01*
X0069506Y0054809D01*
X0069046Y0055442D01*
X0068492Y0055996D01*
X0067858Y0056456D01*
X0067160Y0056812D01*
X0066416Y0057054D01*
X0065642Y0057176D01*
X0059701Y0057176D01*
X0059701Y0052201D01*
X0059701Y0052201D01*
X0070226Y0052201D01*
X0059701Y0052201D01*
X0059701Y0052201D01*
X0059701Y0057176D01*
X0053760Y0057176D01*
X0052986Y0057054D01*
X0052241Y0056812D01*
X0051543Y0056456D01*
X0050910Y0055996D01*
X0050356Y0055442D01*
X0049896Y0054809D01*
X0049540Y0054111D01*
X0049298Y0053366D01*
X0049176Y0052592D01*
X0049176Y0052201D01*
X0059701Y0052201D01*
X0059701Y0047225D01*
X0065642Y0047225D01*
X0066416Y0047348D01*
X0067160Y0047590D01*
X0067858Y0047945D01*
X0068492Y0048406D01*
X0070092Y0051002D02*
X0111939Y0051002D01*
X0109539Y0053402D02*
X0070092Y0053402D01*
X0068686Y0055802D02*
X0107139Y0055802D01*
X0104739Y0058202D02*
X0068005Y0058202D01*
X0067956Y0058152D02*
X0069299Y0059496D01*
X0070026Y0061251D01*
X0070026Y0063151D01*
X0069299Y0064906D01*
X0067956Y0066249D01*
X0066200Y0066976D01*
X0053201Y0066976D01*
X0051446Y0066249D01*
X0050103Y0064906D01*
X0049376Y0063151D01*
X0049376Y0061251D01*
X0050103Y0059496D01*
X0051446Y0058152D01*
X0053201Y0057425D01*
X0066200Y0057425D01*
X0067956Y0058152D01*
X0069757Y0060602D02*
X0102338Y0060602D01*
X0099938Y0063002D02*
X0070026Y0063002D01*
X0068803Y0065402D02*
X0097538Y0065402D01*
X0095138Y0067802D02*
X0067111Y0067802D01*
X0067956Y0068152D02*
X0066200Y0067425D01*
X0053201Y0067425D01*
X0051446Y0068152D01*
X0050103Y0069496D01*
X0049376Y0071251D01*
X0049376Y0073151D01*
X0050103Y0074906D01*
X0051446Y0076249D01*
X0053201Y0076976D01*
X0066200Y0076976D01*
X0067956Y0076249D01*
X0069299Y0074906D01*
X0070026Y0073151D01*
X0070026Y0071251D01*
X0069299Y0069496D01*
X0067956Y0068152D01*
X0069592Y0070203D02*
X0092738Y0070203D01*
X0090338Y0072603D02*
X0070026Y0072603D01*
X0069202Y0075003D02*
X0087938Y0075003D01*
X0085538Y0077403D02*
X0024402Y0077403D01*
X0024402Y0079803D02*
X0049975Y0079803D01*
X0049376Y0082203D02*
X0024402Y0082203D01*
X0024402Y0084603D02*
X0049977Y0084603D01*
X0050938Y0087003D02*
X0024402Y0087003D01*
X0024402Y0089403D02*
X0049400Y0089403D01*
X0049376Y0091803D02*
X0024402Y0091803D01*
X0024402Y0094203D02*
X0049400Y0094203D01*
X0050143Y0096603D02*
X0024402Y0096603D01*
X0024402Y0099004D02*
X0050595Y0099004D01*
X0049376Y0101404D02*
X0024402Y0101404D01*
X0024402Y0103804D02*
X0049646Y0103804D01*
X0051401Y0106204D02*
X0024402Y0106204D01*
X0024402Y0108604D02*
X0050994Y0108604D01*
X0051446Y0108152D02*
X0050103Y0109496D01*
X0049376Y0111251D01*
X0049376Y0113151D01*
X0050103Y0114906D01*
X0051446Y0116249D01*
X0053201Y0116976D01*
X0066200Y0116976D01*
X0067956Y0116249D01*
X0069299Y0114906D01*
X0070026Y0113151D01*
X0070026Y0111251D01*
X0069299Y0109496D01*
X0067956Y0108152D01*
X0066200Y0107425D01*
X0053201Y0107425D01*
X0051446Y0108152D01*
X0049478Y0111004D02*
X0024402Y0111004D01*
X0024402Y0113404D02*
X0049481Y0113404D01*
X0051001Y0115804D02*
X0024402Y0115804D01*
X0024402Y0118204D02*
X0051394Y0118204D01*
X0051446Y0118152D02*
X0053201Y0117425D01*
X0066200Y0117425D01*
X0067956Y0118152D01*
X0069299Y0119496D01*
X0070026Y0121251D01*
X0070026Y0123151D01*
X0069299Y0124906D01*
X0067956Y0126249D01*
X0066200Y0126976D01*
X0053201Y0126976D01*
X0051446Y0126249D01*
X0050103Y0124906D01*
X0049376Y0123151D01*
X0049376Y0121251D01*
X0050103Y0119496D01*
X0051446Y0118152D01*
X0049643Y0120604D02*
X0024402Y0120604D01*
X0024402Y0123004D02*
X0049376Y0123004D01*
X0050601Y0125404D02*
X0024402Y0125404D01*
X0024402Y0127805D02*
X0052285Y0127805D01*
X0051446Y0128152D02*
X0053201Y0127425D01*
X0066200Y0127425D01*
X0067956Y0128152D01*
X0069299Y0129496D01*
X0070026Y0131251D01*
X0070026Y0133151D01*
X0069299Y0134906D01*
X0067956Y0136249D01*
X0066200Y0136976D01*
X0053201Y0136976D01*
X0051446Y0136249D01*
X0050103Y0134906D01*
X0049376Y0133151D01*
X0049376Y0131251D01*
X0050103Y0129496D01*
X0051446Y0128152D01*
X0049809Y0130205D02*
X0024402Y0130205D01*
X0024402Y0132605D02*
X0049376Y0132605D01*
X0050202Y0135005D02*
X0024402Y0135005D01*
X0024402Y0137405D02*
X0108277Y0137405D01*
X0106357Y0135005D02*
X0069200Y0135005D01*
X0070026Y0132605D02*
X0104437Y0132605D01*
X0102517Y0130205D02*
X0069593Y0130205D01*
X0067116Y0127805D02*
X0100597Y0127805D01*
X0098677Y0125404D02*
X0068800Y0125404D01*
X0070026Y0123004D02*
X0096757Y0123004D01*
X0094837Y0120604D02*
X0069758Y0120604D01*
X0068008Y0118204D02*
X0092917Y0118204D01*
X0090997Y0115804D02*
X0068401Y0115804D01*
X0069921Y0113404D02*
X0089077Y0113404D01*
X0087157Y0111004D02*
X0069924Y0111004D01*
X0068407Y0108604D02*
X0085237Y0108604D01*
X0083316Y0106204D02*
X0068001Y0106204D01*
X0069755Y0103804D02*
X0081396Y0103804D01*
X0079476Y0101404D02*
X0070026Y0101404D01*
X0070026Y0082203D02*
X0080738Y0082203D01*
X0083138Y0079803D02*
X0069426Y0079803D01*
X0050199Y0075003D02*
X0024402Y0075003D01*
X0024402Y0072603D02*
X0049376Y0072603D01*
X0049810Y0070203D02*
X0024402Y0070203D01*
X0024402Y0067802D02*
X0052291Y0067802D01*
X0050599Y0065402D02*
X0024402Y0065402D01*
X0024402Y0063002D02*
X0049376Y0063002D01*
X0049644Y0060602D02*
X0024402Y0060602D01*
X0024402Y0058202D02*
X0051396Y0058202D01*
X0050716Y0055802D02*
X0024402Y0055802D01*
X0024402Y0053402D02*
X0049310Y0053402D01*
X0049176Y0052201D02*
X0049176Y0051809D01*
X0049298Y0051036D01*
X0049540Y0050291D01*
X0049896Y0049593D01*
X0050356Y0048959D01*
X0050910Y0048406D01*
X0051543Y0047945D01*
X0052241Y0047590D01*
X0052986Y0047348D01*
X0053760Y0047225D01*
X0059701Y0047225D01*
X0059701Y0052201D01*
X0059701Y0052201D01*
X0059701Y0052201D01*
X0049176Y0052201D01*
X0049309Y0051002D02*
X0024402Y0051002D01*
X0024402Y0048602D02*
X0034739Y0048602D01*
X0029727Y0046202D02*
X0024402Y0046202D01*
X0024402Y0043802D02*
X0027560Y0043802D01*
X0026266Y0041401D02*
X0024402Y0041401D01*
X0024402Y0039001D02*
X0025623Y0039001D01*
X0025551Y0036601D02*
X0024402Y0036601D01*
X0024402Y0034201D02*
X0025944Y0034201D01*
X0026866Y0031801D02*
X0024402Y0031801D01*
X0024455Y0029401D02*
X0028525Y0029401D01*
X0042833Y0027001D02*
X0241568Y0027001D01*
X0260000Y0051002D02*
X0160002Y0051002D01*
X0160002Y0053402D02*
X0260000Y0053402D01*
X0260000Y0055802D02*
X0159776Y0055802D01*
X0158005Y0058202D02*
X0260000Y0058202D01*
X0260000Y0060602D02*
X0159757Y0060602D01*
X0160026Y0063002D02*
X0172644Y0063002D01*
X0172855Y0062792D02*
X0174766Y0062000D01*
X0189635Y0062000D01*
X0191547Y0062792D01*
X0193010Y0064255D01*
X0193802Y0066166D01*
X0193802Y0068235D01*
X0193010Y0070147D01*
X0191547Y0071610D01*
X0190120Y0072201D01*
X0191547Y0072792D01*
X0193010Y0074255D01*
X0193802Y0076166D01*
X0193802Y0078235D01*
X0193010Y0080147D01*
X0191547Y0081610D01*
X0190120Y0082201D01*
X0191547Y0082792D01*
X0193010Y0084255D01*
X0193802Y0086166D01*
X0193802Y0088235D01*
X0193010Y0090147D01*
X0191547Y0091610D01*
X0190120Y0092201D01*
X0191547Y0092792D01*
X0193010Y0094255D01*
X0193802Y0096166D01*
X0193802Y0098235D01*
X0193010Y0100147D01*
X0191547Y0101610D01*
X0190120Y0102201D01*
X0191547Y0102792D01*
X0193010Y0104255D01*
X0193802Y0106166D01*
X0193802Y0108235D01*
X0193010Y0110147D01*
X0191547Y0111610D01*
X0190370Y0112097D01*
X0190674Y0112196D01*
X0191431Y0112582D01*
X0192119Y0113081D01*
X0192720Y0113682D01*
X0193220Y0114370D01*
X0193606Y0115128D01*
X0193869Y0115936D01*
X0194002Y0116776D01*
X0194002Y0117201D01*
X0194002Y0117626D01*
X0193869Y0118465D01*
X0193606Y0119274D01*
X0193220Y0120031D01*
X0192720Y0120719D01*
X0192119Y0121320D01*
X0191431Y0121820D01*
X0190674Y0122206D01*
X0189865Y0122469D01*
X0189026Y0122602D01*
X0182201Y0122602D01*
X0182201Y0117201D01*
X0182201Y0117201D01*
X0194002Y0117201D01*
X0182201Y0117201D01*
X0182201Y0117201D01*
X0182201Y0122602D01*
X0175376Y0122602D01*
X0174536Y0122469D01*
X0173728Y0122206D01*
X0172970Y0121820D01*
X0172282Y0121320D01*
X0171681Y0120719D01*
X0171182Y0120031D01*
X0170796Y0119274D01*
X0170533Y0118465D01*
X0170400Y0117626D01*
X0170400Y0117201D01*
X0182201Y0117201D01*
X0182201Y0117201D01*
X0170400Y0117201D01*
X0170400Y0116776D01*
X0170533Y0115936D01*
X0170796Y0115128D01*
X0171182Y0114370D01*
X0171681Y0113682D01*
X0172282Y0113081D01*
X0172970Y0112582D01*
X0173728Y0112196D01*
X0174031Y0112097D01*
X0172855Y0111610D01*
X0171392Y0110147D01*
X0170600Y0108235D01*
X0170600Y0106166D01*
X0171392Y0104255D01*
X0172855Y0102792D01*
X0174282Y0102201D01*
X0172855Y0101610D01*
X0171392Y0100147D01*
X0171332Y0100002D01*
X0162814Y0100002D01*
X0162070Y0100746D01*
X0160533Y0101383D01*
X0160026Y0101383D01*
X0160026Y0103151D01*
X0159299Y0104906D01*
X0157956Y0106249D01*
X0156200Y0106976D01*
X0143201Y0106976D01*
X0141446Y0106249D01*
X0140103Y0104906D01*
X0139376Y0103151D01*
X0139376Y0101251D01*
X0140103Y0099496D01*
X0141446Y0098152D01*
X0143201Y0097425D01*
X0155519Y0097425D01*
X0155519Y0096976D01*
X0143201Y0096976D01*
X0141446Y0096249D01*
X0140103Y0094906D01*
X0139376Y0093151D01*
X0139376Y0091251D01*
X0140103Y0089496D01*
X0141446Y0088152D01*
X0143201Y0087425D01*
X0156200Y0087425D01*
X0157956Y0088152D01*
X0159299Y0089496D01*
X0160026Y0091251D01*
X0160026Y0093019D01*
X0160533Y0093019D01*
X0162070Y0093656D01*
X0162814Y0094400D01*
X0171332Y0094400D01*
X0171392Y0094255D01*
X0172855Y0092792D01*
X0174282Y0092201D01*
X0172855Y0091610D01*
X0171392Y0090147D01*
X0171332Y0090002D01*
X0170314Y0090002D01*
X0169570Y0090746D01*
X0168033Y0091383D01*
X0166369Y0091383D01*
X0164832Y0090746D01*
X0163656Y0089570D01*
X0163019Y0088033D01*
X0163019Y0086369D01*
X0163656Y0084832D01*
X0164832Y0083656D01*
X0166369Y0083019D01*
X0168033Y0083019D01*
X0169570Y0083656D01*
X0170314Y0084400D01*
X0171332Y0084400D01*
X0171392Y0084255D01*
X0172855Y0082792D01*
X0174282Y0082201D01*
X0172855Y0081610D01*
X0171392Y0080147D01*
X0170600Y0078235D01*
X0170600Y0076166D01*
X0171392Y0074255D01*
X0172855Y0072792D01*
X0174282Y0072201D01*
X0172855Y0071610D01*
X0171392Y0070147D01*
X0170600Y0068235D01*
X0170600Y0066166D01*
X0171392Y0064255D01*
X0172855Y0062792D01*
X0170916Y0065402D02*
X0158803Y0065402D01*
X0157956Y0068152D02*
X0159299Y0069496D01*
X0160026Y0071251D01*
X0160026Y0073151D01*
X0159299Y0074906D01*
X0157956Y0076249D01*
X0156200Y0076976D01*
X0143201Y0076976D01*
X0141446Y0076249D01*
X0140103Y0074906D01*
X0139376Y0073151D01*
X0139376Y0071251D01*
X0140103Y0069496D01*
X0141446Y0068152D01*
X0143201Y0067425D01*
X0156200Y0067425D01*
X0157956Y0068152D01*
X0157111Y0067802D02*
X0170600Y0067802D01*
X0171447Y0070203D02*
X0159592Y0070203D01*
X0160026Y0072603D02*
X0173311Y0072603D01*
X0171082Y0075003D02*
X0159202Y0075003D01*
X0157956Y0078152D02*
X0159299Y0079496D01*
X0160026Y0081251D01*
X0160026Y0083151D01*
X0159299Y0084906D01*
X0157956Y0086249D01*
X0156200Y0086976D01*
X0143201Y0086976D01*
X0141446Y0086249D01*
X0140103Y0084906D01*
X0139376Y0083151D01*
X0139376Y0081251D01*
X0140103Y0079496D01*
X0141446Y0078152D01*
X0143201Y0077425D01*
X0156200Y0077425D01*
X0157956Y0078152D01*
X0159426Y0079803D02*
X0171249Y0079803D01*
X0170600Y0077403D02*
X0127502Y0077403D01*
X0127502Y0079803D02*
X0139975Y0079803D01*
X0139376Y0082203D02*
X0127502Y0082203D01*
X0127502Y0084603D02*
X0139977Y0084603D01*
X0140195Y0089403D02*
X0127502Y0089403D01*
X0127502Y0087003D02*
X0163019Y0087003D01*
X0163587Y0089403D02*
X0159206Y0089403D01*
X0160026Y0091803D02*
X0173322Y0091803D01*
X0171443Y0094203D02*
X0162617Y0094203D01*
X0160026Y0101404D02*
X0172649Y0101404D01*
X0171843Y0103804D02*
X0159755Y0103804D01*
X0158001Y0106204D02*
X0170600Y0106204D01*
X0170753Y0108604D02*
X0158407Y0108604D01*
X0157956Y0108152D02*
X0159299Y0109496D01*
X0160026Y0111251D01*
X0160026Y0113151D01*
X0159299Y0114906D01*
X0157956Y0116249D01*
X0156200Y0116976D01*
X0143201Y0116976D01*
X0141446Y0116249D01*
X0140103Y0114906D01*
X0139376Y0113151D01*
X0139376Y0111251D01*
X0140103Y0109496D01*
X0141446Y0108152D01*
X0143201Y0107425D01*
X0156200Y0107425D01*
X0157956Y0108152D01*
X0159924Y0111004D02*
X0172249Y0111004D01*
X0171960Y0113404D02*
X0159921Y0113404D01*
X0158401Y0115804D02*
X0170576Y0115804D01*
X0170492Y0118204D02*
X0158008Y0118204D01*
X0157956Y0118152D02*
X0159299Y0119496D01*
X0160026Y0121251D01*
X0160026Y0123151D01*
X0159299Y0124906D01*
X0157956Y0126249D01*
X0156200Y0126976D01*
X0143201Y0126976D01*
X0141446Y0126249D01*
X0140103Y0124906D01*
X0139376Y0123151D01*
X0139376Y0121251D01*
X0140103Y0119496D01*
X0141446Y0118152D01*
X0143201Y0117425D01*
X0156200Y0117425D01*
X0157956Y0118152D01*
X0159758Y0120604D02*
X0171598Y0120604D01*
X0182201Y0120604D02*
X0182201Y0120604D01*
X0182201Y0118204D02*
X0182201Y0118204D01*
X0192804Y0120604D02*
X0260000Y0120604D01*
X0260000Y0118204D02*
X0193910Y0118204D01*
X0193826Y0115804D02*
X0260000Y0115804D01*
X0260000Y0113404D02*
X0192442Y0113404D01*
X0192153Y0111004D02*
X0260000Y0111004D01*
X0260000Y0108604D02*
X0193649Y0108604D01*
X0193802Y0106204D02*
X0260000Y0106204D01*
X0260000Y0103804D02*
X0192559Y0103804D01*
X0191753Y0101404D02*
X0260000Y0101404D01*
X0260000Y0099004D02*
X0193483Y0099004D01*
X0193802Y0096603D02*
X0260000Y0096603D01*
X0260000Y0094203D02*
X0192958Y0094203D01*
X0191080Y0091803D02*
X0260000Y0091803D01*
X0260000Y0089403D02*
X0193318Y0089403D01*
X0193802Y0087003D02*
X0260000Y0087003D01*
X0260000Y0084603D02*
X0193154Y0084603D01*
X0190125Y0082203D02*
X0260000Y0082203D01*
X0260000Y0079803D02*
X0193152Y0079803D01*
X0193802Y0077403D02*
X0260000Y0077403D01*
X0260000Y0075003D02*
X0193320Y0075003D01*
X0191090Y0072603D02*
X0260000Y0072603D01*
X0260000Y0070203D02*
X0192954Y0070203D01*
X0193802Y0067802D02*
X0260000Y0067802D01*
X0260000Y0065402D02*
X0193485Y0065402D01*
X0191757Y0063002D02*
X0260000Y0063002D01*
X0260000Y0123004D02*
X0160026Y0123004D01*
X0158800Y0125404D02*
X0260000Y0125404D01*
X0260000Y0127805D02*
X0157116Y0127805D01*
X0159593Y0130205D02*
X0260000Y0130205D01*
X0260000Y0132605D02*
X0160026Y0132605D01*
X0159200Y0135005D02*
X0260000Y0135005D01*
X0260000Y0137405D02*
X0158866Y0137405D01*
X0160002Y0139805D02*
X0260000Y0139805D01*
X0260000Y0142205D02*
X0190130Y0142205D01*
X0189635Y0142000D02*
X0191547Y0142792D01*
X0193010Y0144255D01*
X0193802Y0146166D01*
X0193802Y0148235D01*
X0193010Y0150147D01*
X0191547Y0151610D01*
X0190120Y0152201D01*
X0191547Y0152792D01*
X0193010Y0154255D01*
X0193802Y0156166D01*
X0193802Y0158235D01*
X0193010Y0160147D01*
X0191547Y0161610D01*
X0190120Y0162201D01*
X0191547Y0162792D01*
X0193010Y0164255D01*
X0193802Y0166166D01*
X0193802Y0168235D01*
X0193010Y0170147D01*
X0191547Y0171610D01*
X0190120Y0172201D01*
X0191547Y0172792D01*
X0193010Y0174255D01*
X0193802Y0176166D01*
X0193802Y0178235D01*
X0193010Y0180147D01*
X0191547Y0181610D01*
X0190120Y0182201D01*
X0191547Y0182792D01*
X0193010Y0184255D01*
X0193802Y0186166D01*
X0193802Y0188235D01*
X0193010Y0190147D01*
X0191547Y0191610D01*
X0190120Y0192201D01*
X0191547Y0192792D01*
X0193010Y0194255D01*
X0193802Y0196166D01*
X0193802Y0198235D01*
X0193010Y0200147D01*
X0191547Y0201610D01*
X0190120Y0202201D01*
X0191547Y0202792D01*
X0193010Y0204255D01*
X0193802Y0206166D01*
X0193802Y0208235D01*
X0193010Y0210147D01*
X0191547Y0211610D01*
X0190370Y0212097D01*
X0190674Y0212196D01*
X0191431Y0212582D01*
X0192119Y0213081D01*
X0192720Y0213682D01*
X0193220Y0214370D01*
X0193606Y0215128D01*
X0193869Y0215936D01*
X0194002Y0216776D01*
X0194002Y0217201D01*
X0194002Y0217626D01*
X0193869Y0218465D01*
X0193606Y0219274D01*
X0193220Y0220031D01*
X0192720Y0220719D01*
X0192119Y0221320D01*
X0191431Y0221820D01*
X0190674Y0222206D01*
X0189865Y0222469D01*
X0189026Y0222602D01*
X0182201Y0222602D01*
X0182201Y0217201D01*
X0182201Y0217201D01*
X0194002Y0217201D01*
X0182201Y0217201D01*
X0182201Y0217201D01*
X0182201Y0222602D01*
X0175376Y0222602D01*
X0174536Y0222469D01*
X0173728Y0222206D01*
X0172970Y0221820D01*
X0172282Y0221320D01*
X0171681Y0220719D01*
X0171182Y0220031D01*
X0170796Y0219274D01*
X0170533Y0218465D01*
X0170400Y0217626D01*
X0170400Y0217201D01*
X0182201Y0217201D01*
X0182201Y0217201D01*
X0170400Y0217201D01*
X0170400Y0216776D01*
X0170533Y0215936D01*
X0170796Y0215128D01*
X0171182Y0214370D01*
X0171681Y0213682D01*
X0172282Y0213081D01*
X0172970Y0212582D01*
X0173728Y0212196D01*
X0174031Y0212097D01*
X0172855Y0211610D01*
X0171392Y0210147D01*
X0170600Y0208235D01*
X0170600Y0206166D01*
X0171392Y0204255D01*
X0172855Y0202792D01*
X0174282Y0202201D01*
X0172855Y0201610D01*
X0171392Y0200147D01*
X0171332Y0200002D01*
X0162814Y0200002D01*
X0162070Y0200746D01*
X0160533Y0201383D01*
X0158869Y0201383D01*
X0157332Y0200746D01*
X0156156Y0199570D01*
X0155519Y0198033D01*
X0155519Y0196976D01*
X0143201Y0196976D01*
X0141446Y0196249D01*
X0140103Y0194906D01*
X0139376Y0193151D01*
X0139376Y0191251D01*
X0140103Y0189496D01*
X0141446Y0188152D01*
X0143201Y0187425D01*
X0156200Y0187425D01*
X0157956Y0188152D01*
X0159299Y0189496D01*
X0160026Y0191251D01*
X0160026Y0193019D01*
X0160533Y0193019D01*
X0162070Y0193656D01*
X0162814Y0194400D01*
X0171332Y0194400D01*
X0171392Y0194255D01*
X0172855Y0192792D01*
X0174282Y0192201D01*
X0172855Y0191610D01*
X0171392Y0190147D01*
X0171332Y0190002D01*
X0170314Y0190002D01*
X0169570Y0190746D01*
X0168033Y0191383D01*
X0166369Y0191383D01*
X0164832Y0190746D01*
X0163656Y0189570D01*
X0163019Y0188033D01*
X0163019Y0186369D01*
X0163656Y0184832D01*
X0164832Y0183656D01*
X0166369Y0183019D01*
X0168033Y0183019D01*
X0169570Y0183656D01*
X0170314Y0184400D01*
X0171332Y0184400D01*
X0171392Y0184255D01*
X0172855Y0182792D01*
X0174282Y0182201D01*
X0172855Y0181610D01*
X0171392Y0180147D01*
X0170600Y0178235D01*
X0170600Y0176166D01*
X0171392Y0174255D01*
X0172855Y0172792D01*
X0174282Y0172201D01*
X0172855Y0171610D01*
X0171392Y0170147D01*
X0170600Y0168235D01*
X0170600Y0166166D01*
X0171392Y0164255D01*
X0172855Y0162792D01*
X0174282Y0162201D01*
X0172855Y0161610D01*
X0171392Y0160147D01*
X0170600Y0158235D01*
X0170600Y0156166D01*
X0171392Y0154255D01*
X0172855Y0152792D01*
X0174282Y0152201D01*
X0172855Y0151610D01*
X0171392Y0150147D01*
X0170600Y0148235D01*
X0170600Y0146166D01*
X0171392Y0144255D01*
X0172855Y0142792D01*
X0174766Y0142000D01*
X0189635Y0142000D01*
X0193155Y0144605D02*
X0260000Y0144605D01*
X0260000Y0147005D02*
X0193802Y0147005D01*
X0193317Y0149405D02*
X0260000Y0149405D01*
X0260000Y0151805D02*
X0191074Y0151805D01*
X0192961Y0154206D02*
X0260000Y0154206D01*
X0260000Y0156606D02*
X0193802Y0156606D01*
X0193482Y0159006D02*
X0260000Y0159006D01*
X0260000Y0161406D02*
X0191751Y0161406D01*
X0192561Y0163806D02*
X0260000Y0163806D01*
X0260000Y0166206D02*
X0193802Y0166206D01*
X0193648Y0168606D02*
X0260000Y0168606D01*
X0260000Y0171006D02*
X0192150Y0171006D01*
X0192161Y0173406D02*
X0260000Y0173406D01*
X0260000Y0175806D02*
X0193652Y0175806D01*
X0193802Y0178206D02*
X0260000Y0178206D01*
X0260000Y0180606D02*
X0192550Y0180606D01*
X0191762Y0183007D02*
X0260000Y0183007D01*
X0260000Y0185407D02*
X0193487Y0185407D01*
X0193802Y0187807D02*
X0260000Y0187807D01*
X0260000Y0190207D02*
X0192950Y0190207D01*
X0191100Y0192607D02*
X0260000Y0192607D01*
X0260000Y0195007D02*
X0193321Y0195007D01*
X0193802Y0197407D02*
X0260000Y0197407D01*
X0260000Y0199807D02*
X0193150Y0199807D01*
X0190136Y0202207D02*
X0260000Y0202207D01*
X0260000Y0204607D02*
X0193156Y0204607D01*
X0193802Y0207007D02*
X0260000Y0207007D01*
X0260000Y0209408D02*
X0193316Y0209408D01*
X0191069Y0211808D02*
X0260000Y0211808D01*
X0260000Y0214208D02*
X0193102Y0214208D01*
X0193975Y0216608D02*
X0260000Y0216608D01*
X0260000Y0219008D02*
X0193692Y0219008D01*
X0191998Y0221408D02*
X0260000Y0221408D01*
X0260000Y0223808D02*
X0152201Y0223808D01*
X0152201Y0221408D02*
X0172403Y0221408D01*
X0170709Y0219008D02*
X0152201Y0219008D01*
X0152201Y0216608D02*
X0170427Y0216608D01*
X0171300Y0214208D02*
X0152201Y0214208D01*
X0153515Y0211808D02*
X0173332Y0211808D01*
X0171086Y0209408D02*
X0154509Y0209408D01*
X0154607Y0207007D02*
X0170600Y0207007D01*
X0171246Y0204607D02*
X0154349Y0204607D01*
X0153355Y0202207D02*
X0174266Y0202207D01*
X0173301Y0192607D02*
X0160026Y0192607D01*
X0159594Y0190207D02*
X0164293Y0190207D01*
X0163019Y0187807D02*
X0157121Y0187807D01*
X0156200Y0186976D02*
X0143201Y0186976D01*
X0141446Y0186249D01*
X0140103Y0184906D01*
X0139376Y0183151D01*
X0139376Y0181251D01*
X0140103Y0179496D01*
X0141446Y0178152D01*
X0143201Y0177425D01*
X0156200Y0177425D01*
X0157956Y0178152D01*
X0159299Y0179496D01*
X0160026Y0181251D01*
X0160026Y0183151D01*
X0159299Y0184906D01*
X0157956Y0186249D01*
X0156200Y0186976D01*
X0158798Y0185407D02*
X0163417Y0185407D01*
X0160026Y0183007D02*
X0172640Y0183007D01*
X0171851Y0180606D02*
X0159759Y0180606D01*
X0158010Y0178206D02*
X0170600Y0178206D01*
X0170749Y0175806D02*
X0169424Y0175806D01*
X0169570Y0175746D02*
X0168033Y0176383D01*
X0166369Y0176383D01*
X0164832Y0175746D01*
X0164087Y0175002D01*
X0159203Y0175002D01*
X0157956Y0176249D01*
X0156200Y0176976D01*
X0143201Y0176976D01*
X0141446Y0176249D01*
X0140103Y0174906D01*
X0139376Y0173151D01*
X0139376Y0171251D01*
X0140103Y0169496D01*
X0141446Y0168152D01*
X0143201Y0167425D01*
X0156200Y0167425D01*
X0157956Y0168152D01*
X0159203Y0169400D01*
X0164087Y0169400D01*
X0164832Y0168656D01*
X0166369Y0168019D01*
X0168033Y0168019D01*
X0169570Y0168656D01*
X0170746Y0169832D01*
X0171383Y0171369D01*
X0171383Y0173033D01*
X0170746Y0174570D01*
X0169570Y0175746D01*
X0171228Y0173406D02*
X0172240Y0173406D01*
X0172251Y0171006D02*
X0171232Y0171006D01*
X0170754Y0168606D02*
X0169450Y0168606D01*
X0170600Y0166206D02*
X0157999Y0166206D01*
X0157956Y0166249D02*
X0156200Y0166976D01*
X0143201Y0166976D01*
X0141446Y0166249D01*
X0140103Y0164906D01*
X0139376Y0163151D01*
X0139376Y0161251D01*
X0140103Y0159496D01*
X0141446Y0158152D01*
X0143201Y0157425D01*
X0156200Y0157425D01*
X0157956Y0158152D01*
X0159299Y0159496D01*
X0160026Y0161251D01*
X0160026Y0163151D01*
X0159299Y0164906D01*
X0157956Y0166249D01*
X0158409Y0168606D02*
X0164951Y0168606D01*
X0159755Y0163806D02*
X0171841Y0163806D01*
X0172651Y0161406D02*
X0160026Y0161406D01*
X0158809Y0159006D02*
X0170919Y0159006D01*
X0170600Y0156606D02*
X0157095Y0156606D01*
X0159589Y0154206D02*
X0171441Y0154206D01*
X0173327Y0151805D02*
X0160026Y0151805D01*
X0159209Y0149405D02*
X0171085Y0149405D01*
X0170600Y0147005D02*
X0158857Y0147005D01*
X0160002Y0144605D02*
X0171247Y0144605D01*
X0174271Y0142205D02*
X0160026Y0142205D01*
X0142306Y0156606D02*
X0067095Y0156606D01*
X0067956Y0156249D02*
X0066200Y0156976D01*
X0053201Y0156976D01*
X0051446Y0156249D01*
X0050103Y0154906D01*
X0049376Y0153151D01*
X0049376Y0151251D01*
X0050103Y0149496D01*
X0051446Y0148152D01*
X0053201Y0147425D01*
X0066200Y0147425D01*
X0067956Y0148152D01*
X0069299Y0149496D01*
X0070026Y0151251D01*
X0070026Y0153151D01*
X0069299Y0154906D01*
X0067956Y0156249D01*
X0067956Y0158152D02*
X0066200Y0157425D01*
X0053201Y0157425D01*
X0051446Y0158152D01*
X0050103Y0159496D01*
X0049376Y0161251D01*
X0049376Y0163151D01*
X0050103Y0164906D01*
X0051446Y0166249D01*
X0053201Y0166976D01*
X0066200Y0166976D01*
X0067956Y0166249D01*
X0069299Y0164906D01*
X0070026Y0163151D01*
X0070026Y0161251D01*
X0069299Y0159496D01*
X0067956Y0158152D01*
X0068809Y0159006D02*
X0140593Y0159006D01*
X0139376Y0161406D02*
X0070026Y0161406D01*
X0069755Y0163806D02*
X0139647Y0163806D01*
X0141403Y0166206D02*
X0067999Y0166206D01*
X0067956Y0168152D02*
X0069299Y0169496D01*
X0070026Y0171251D01*
X0070026Y0173151D01*
X0069299Y0174906D01*
X0067956Y0176249D01*
X0066200Y0176976D01*
X0053201Y0176976D01*
X0051446Y0176249D01*
X0050103Y0174906D01*
X0049376Y0173151D01*
X0049376Y0171251D01*
X0050103Y0169496D01*
X0051446Y0168152D01*
X0053201Y0167425D01*
X0066200Y0167425D01*
X0067956Y0168152D01*
X0068409Y0168606D02*
X0140992Y0168606D01*
X0139477Y0171006D02*
X0069925Y0171006D01*
X0069920Y0173406D02*
X0139481Y0173406D01*
X0141003Y0175806D02*
X0068399Y0175806D01*
X0067956Y0178152D02*
X0069299Y0179496D01*
X0070026Y0181251D01*
X0070026Y0183151D01*
X0069299Y0184906D01*
X0067956Y0186249D01*
X0066200Y0186976D01*
X0053201Y0186976D01*
X0051446Y0186249D01*
X0050103Y0184906D01*
X0049376Y0183151D01*
X0049376Y0181251D01*
X0050103Y0179496D01*
X0051446Y0178152D01*
X0053201Y0177425D01*
X0066200Y0177425D01*
X0067956Y0178152D01*
X0068010Y0178206D02*
X0141392Y0178206D01*
X0139642Y0180606D02*
X0069759Y0180606D01*
X0070026Y0183007D02*
X0139376Y0183007D01*
X0140603Y0185407D02*
X0068798Y0185407D01*
X0067956Y0188152D02*
X0066200Y0187425D01*
X0053201Y0187425D01*
X0051446Y0188152D01*
X0050103Y0189496D01*
X0049376Y0191251D01*
X0049376Y0193151D01*
X0050103Y0194906D01*
X0051446Y0196249D01*
X0053201Y0196976D01*
X0066200Y0196976D01*
X0067956Y0196249D01*
X0069299Y0194906D01*
X0070026Y0193151D01*
X0070026Y0191251D01*
X0069299Y0189496D01*
X0067956Y0188152D01*
X0067121Y0187807D02*
X0142280Y0187807D01*
X0139808Y0190207D02*
X0069594Y0190207D01*
X0070026Y0192607D02*
X0139376Y0192607D01*
X0140204Y0195007D02*
X0069198Y0195007D01*
X0052280Y0187807D02*
X0024402Y0187807D01*
X0024402Y0190207D02*
X0049808Y0190207D01*
X0049376Y0192607D02*
X0024402Y0192607D01*
X0024402Y0195007D02*
X0050204Y0195007D01*
X0050603Y0185407D02*
X0024402Y0185407D01*
X0024402Y0183007D02*
X0049376Y0183007D01*
X0049642Y0180606D02*
X0024402Y0180606D01*
X0024402Y0178206D02*
X0051392Y0178206D01*
X0051003Y0175806D02*
X0024402Y0175806D01*
X0024402Y0173406D02*
X0049481Y0173406D01*
X0049477Y0171006D02*
X0024402Y0171006D01*
X0024402Y0168606D02*
X0050992Y0168606D01*
X0051403Y0166206D02*
X0024402Y0166206D01*
X0024402Y0163806D02*
X0049647Y0163806D01*
X0049376Y0161406D02*
X0024402Y0161406D01*
X0024402Y0159006D02*
X0050593Y0159006D01*
X0052306Y0156606D02*
X0024402Y0156606D01*
X0024402Y0154206D02*
X0049813Y0154206D01*
X0049376Y0151805D02*
X0024402Y0151805D01*
X0024402Y0149405D02*
X0050193Y0149405D01*
X0051446Y0146249D02*
X0050103Y0144906D01*
X0049376Y0143151D01*
X0049376Y0141251D01*
X0050103Y0139496D01*
X0051446Y0138152D01*
X0053201Y0137425D01*
X0066200Y0137425D01*
X0067956Y0138152D01*
X0069299Y0139496D01*
X0070026Y0141251D01*
X0070026Y0143151D01*
X0069299Y0144906D01*
X0067956Y0146249D01*
X0066200Y0146976D01*
X0053201Y0146976D01*
X0051446Y0146249D01*
X0049978Y0144605D02*
X0024402Y0144605D01*
X0024402Y0142205D02*
X0049376Y0142205D01*
X0049974Y0139805D02*
X0024402Y0139805D01*
X0024402Y0147005D02*
X0115958Y0147005D01*
X0114038Y0144605D02*
X0069424Y0144605D01*
X0070026Y0142205D02*
X0112118Y0142205D01*
X0110197Y0139805D02*
X0069427Y0139805D01*
X0069209Y0149405D02*
X0117898Y0149405D01*
X0129066Y0132605D02*
X0139376Y0132605D01*
X0139809Y0130205D02*
X0127502Y0130205D01*
X0127502Y0127805D02*
X0142285Y0127805D01*
X0140601Y0125404D02*
X0127502Y0125404D01*
X0127502Y0123004D02*
X0139376Y0123004D01*
X0139643Y0120604D02*
X0127502Y0120604D01*
X0127502Y0118204D02*
X0141394Y0118204D01*
X0141001Y0115804D02*
X0127502Y0115804D01*
X0127502Y0113404D02*
X0139481Y0113404D01*
X0139478Y0111004D02*
X0127502Y0111004D01*
X0127502Y0108604D02*
X0140994Y0108604D01*
X0141401Y0106204D02*
X0127502Y0106204D01*
X0127502Y0103804D02*
X0139646Y0103804D01*
X0139376Y0101404D02*
X0127502Y0101404D01*
X0127502Y0099004D02*
X0140595Y0099004D01*
X0142301Y0096603D02*
X0127502Y0096603D01*
X0127502Y0094203D02*
X0139812Y0094203D01*
X0139376Y0091803D02*
X0127502Y0091803D01*
X0127502Y0075003D02*
X0140199Y0075003D01*
X0139376Y0072603D02*
X0127502Y0072603D01*
X0127502Y0070203D02*
X0139810Y0070203D01*
X0142291Y0067802D02*
X0127502Y0067802D01*
X0127502Y0065402D02*
X0140599Y0065402D01*
X0139376Y0063002D02*
X0127860Y0063002D01*
X0130260Y0060602D02*
X0139644Y0060602D01*
X0160026Y0082203D02*
X0174276Y0082203D01*
X0163884Y0084603D02*
X0159424Y0084603D01*
X0139376Y0151805D02*
X0070026Y0151805D01*
X0069589Y0154206D02*
X0139813Y0154206D01*
X0158399Y0175806D02*
X0164977Y0175806D01*
X0170109Y0190207D02*
X0171452Y0190207D01*
X0156393Y0199807D02*
X0151317Y0199807D01*
X0155519Y0197407D02*
X0146943Y0197407D01*
X0152201Y0226208D02*
X0260000Y0226208D01*
X0260000Y0228608D02*
X0152201Y0228608D01*
X0152201Y0231008D02*
X0260000Y0231008D01*
X0260000Y0233408D02*
X0152201Y0233408D01*
X0152201Y0235808D02*
X0260000Y0235808D01*
X0260000Y0238209D02*
X0151193Y0238209D01*
X0148793Y0240609D02*
X0260000Y0240609D01*
X0260000Y0243009D02*
X0254519Y0243009D01*
X0254619Y0243081D02*
X0255220Y0243682D01*
X0255720Y0244370D01*
X0256106Y0245128D01*
X0256369Y0245936D01*
X0256502Y0246776D01*
X0256502Y0247201D01*
X0256502Y0247626D01*
X0256369Y0248465D01*
X0256106Y0249274D01*
X0255720Y0250031D01*
X0255220Y0250719D01*
X0254619Y0251320D01*
X0253931Y0251820D01*
X0253174Y0252206D01*
X0252870Y0252305D01*
X0254047Y0252792D01*
X0255510Y0254255D01*
X0256302Y0256166D01*
X0256302Y0258235D01*
X0255510Y0260147D01*
X0254047Y0261610D01*
X0252620Y0262201D01*
X0254047Y0262792D01*
X0255510Y0264255D01*
X0256302Y0266166D01*
X0256302Y0268235D01*
X0255510Y0270147D01*
X0254047Y0271610D01*
X0252620Y0272201D01*
X0254047Y0272792D01*
X0255510Y0274255D01*
X0256302Y0276166D01*
X0256302Y0278235D01*
X0255510Y0280147D01*
X0254047Y0281610D01*
X0252620Y0282201D01*
X0254047Y0282792D01*
X0255510Y0284255D01*
X0256302Y0286166D01*
X0256302Y0288235D01*
X0255510Y0290147D01*
X0254047Y0291610D01*
X0252620Y0292201D01*
X0254047Y0292792D01*
X0255510Y0294255D01*
X0256302Y0296166D01*
X0256302Y0298235D01*
X0255510Y0300147D01*
X0254047Y0301610D01*
X0252135Y0302402D01*
X0237266Y0302402D01*
X0235355Y0301610D01*
X0233892Y0300147D01*
X0233832Y0300002D01*
X0176644Y0300002D01*
X0175614Y0299575D01*
X0173541Y0297502D01*
X0173134Y0297502D01*
X0175452Y0299819D01*
X0175452Y0304583D01*
X0172083Y0307952D01*
X0167319Y0307952D01*
X0163950Y0304583D01*
X0163950Y0299819D01*
X0166267Y0297502D01*
X0163361Y0297502D01*
X0160452Y0300411D01*
X0160452Y0304583D01*
X0157083Y0307952D01*
X0152319Y0307952D01*
X0148950Y0304583D01*
X0148950Y0299819D01*
X0151267Y0297502D01*
X0148361Y0297502D01*
X0145452Y0300411D01*
X0145452Y0304583D01*
X0142083Y0307952D01*
X0137319Y0307952D01*
X0133950Y0304583D01*
X0133950Y0299819D01*
X0137319Y0296450D01*
X0141491Y0296450D01*
X0144826Y0293114D01*
X0145614Y0292326D01*
X0146644Y0291900D01*
X0151267Y0291900D01*
X0148950Y0289583D01*
X0148950Y0284819D01*
X0152319Y0281450D01*
X0153991Y0281450D01*
X0157326Y0278114D01*
X0158114Y0277326D01*
X0159144Y0276900D01*
X0166267Y0276900D01*
X0163950Y0274583D01*
X0163950Y0269819D01*
X0166267Y0267502D01*
X0160861Y0267502D01*
X0159498Y0268865D01*
X0160452Y0269819D01*
X0160452Y0274583D01*
X0157083Y0277952D01*
X0152319Y0277952D01*
X0148950Y0274583D01*
X0148950Y0269819D01*
X0152319Y0266450D01*
X0153991Y0266450D01*
X0157326Y0263114D01*
X0158114Y0262326D01*
X0159144Y0261900D01*
X0166267Y0261900D01*
X0163950Y0259583D01*
X0163950Y0254819D01*
X0166267Y0252502D01*
X0160861Y0252502D01*
X0159498Y0253865D01*
X0160452Y0254819D01*
X0160452Y0259583D01*
X0157083Y0262952D01*
X0152319Y0262952D01*
X0148950Y0259583D01*
X0148950Y0254819D01*
X0152319Y0251450D01*
X0153991Y0251450D01*
X0158114Y0247326D01*
X0159144Y0246900D01*
X0175258Y0246900D01*
X0176287Y0247326D01*
X0183361Y0254400D01*
X0233832Y0254400D01*
X0233892Y0254255D01*
X0235355Y0252792D01*
X0236531Y0252305D01*
X0236228Y0252206D01*
X0235470Y0251820D01*
X0234782Y0251320D01*
X0234181Y0250719D01*
X0233682Y0250031D01*
X0233296Y0249274D01*
X0233033Y0248465D01*
X0232900Y0247626D01*
X0232900Y0247201D01*
X0244701Y0247201D01*
X0256502Y0247201D01*
X0244701Y0247201D01*
X0244701Y0247201D01*
X0244701Y0241800D01*
X0251526Y0241800D01*
X0252365Y0241933D01*
X0253174Y0242196D01*
X0253931Y0242582D01*
X0254619Y0243081D01*
X0256197Y0245409D02*
X0260000Y0245409D01*
X0260000Y0247809D02*
X0256473Y0247809D01*
X0255591Y0250209D02*
X0260000Y0250209D01*
X0260000Y0252609D02*
X0253606Y0252609D01*
X0255822Y0255009D02*
X0260000Y0255009D01*
X0260000Y0257409D02*
X0256302Y0257409D01*
X0255650Y0259809D02*
X0260000Y0259809D01*
X0260000Y0262209D02*
X0252641Y0262209D01*
X0255657Y0264609D02*
X0260000Y0264609D01*
X0260000Y0267010D02*
X0256302Y0267010D01*
X0255815Y0269410D02*
X0260000Y0269410D01*
X0260000Y0271810D02*
X0253564Y0271810D01*
X0255465Y0274210D02*
X0260000Y0274210D01*
X0260000Y0276610D02*
X0256302Y0276610D01*
X0255981Y0279010D02*
X0260000Y0279010D01*
X0260000Y0281410D02*
X0254246Y0281410D01*
X0255065Y0283810D02*
X0260000Y0283810D01*
X0260000Y0286210D02*
X0256302Y0286210D01*
X0256146Y0288610D02*
X0260000Y0288610D01*
X0260000Y0291010D02*
X0254646Y0291010D01*
X0254666Y0293411D02*
X0260000Y0293411D01*
X0260000Y0295811D02*
X0256154Y0295811D01*
X0256302Y0298211D02*
X0260000Y0298211D01*
X0260000Y0300611D02*
X0255046Y0300611D01*
X0260000Y0303011D02*
X0175452Y0303011D01*
X0175452Y0300611D02*
X0234356Y0300611D01*
X0242704Y0313845D02*
X0240048Y0315379D01*
X0237879Y0317548D01*
X0236345Y0320204D01*
X0235551Y0323167D01*
X0235551Y0326234D01*
X0236345Y0329197D01*
X0237879Y0331854D01*
X0240048Y0334023D01*
X0242704Y0335556D01*
X0245667Y0336350D01*
X0248734Y0336350D01*
X0251697Y0335556D01*
X0254354Y0334023D01*
X0256523Y0331854D01*
X0258056Y0329197D01*
X0258850Y0326234D01*
X0258850Y0323167D01*
X0258056Y0320204D01*
X0256523Y0317548D01*
X0254354Y0315379D01*
X0251697Y0313845D01*
X0248734Y0313051D01*
X0245667Y0313051D01*
X0242704Y0313845D01*
X0240684Y0315011D02*
X0132201Y0315011D01*
X0132201Y0312611D02*
X0260000Y0312611D01*
X0260000Y0310211D02*
X0132201Y0310211D01*
X0132201Y0307811D02*
X0137178Y0307811D01*
X0134778Y0305411D02*
X0132201Y0305411D01*
X0132201Y0303011D02*
X0133950Y0303011D01*
X0133950Y0300611D02*
X0132201Y0300611D01*
X0132201Y0298211D02*
X0135558Y0298211D01*
X0137319Y0292952D02*
X0133950Y0289583D01*
X0133950Y0284819D01*
X0137319Y0281450D01*
X0142083Y0281450D01*
X0145452Y0284819D01*
X0145452Y0289583D01*
X0142083Y0292952D01*
X0137319Y0292952D01*
X0135378Y0291010D02*
X0132201Y0291010D01*
X0132201Y0288610D02*
X0133950Y0288610D01*
X0133950Y0286210D02*
X0132201Y0286210D01*
X0132201Y0283810D02*
X0134959Y0283810D01*
X0132201Y0281410D02*
X0154031Y0281410D01*
X0156431Y0279010D02*
X0132201Y0279010D01*
X0132201Y0276610D02*
X0135977Y0276610D01*
X0137319Y0277952D02*
X0133950Y0274583D01*
X0133950Y0269819D01*
X0137319Y0266450D01*
X0142083Y0266450D01*
X0145452Y0269819D01*
X0145452Y0274583D01*
X0142083Y0277952D01*
X0137319Y0277952D01*
X0133950Y0274210D02*
X0132201Y0274210D01*
X0132201Y0271810D02*
X0133950Y0271810D01*
X0134359Y0269410D02*
X0132201Y0269410D01*
X0132201Y0267010D02*
X0136759Y0267010D01*
X0136577Y0262209D02*
X0132201Y0262209D01*
X0132201Y0259809D02*
X0134176Y0259809D01*
X0133950Y0257409D02*
X0132201Y0257409D01*
X0132201Y0264609D02*
X0155831Y0264609D01*
X0157825Y0262209D02*
X0158397Y0262209D01*
X0160225Y0259809D02*
X0164177Y0259809D01*
X0163950Y0257409D02*
X0160452Y0257409D01*
X0160452Y0255009D02*
X0163950Y0255009D01*
X0166160Y0252609D02*
X0160753Y0252609D01*
X0157632Y0247809D02*
X0141593Y0247809D01*
X0143993Y0245409D02*
X0233204Y0245409D01*
X0233296Y0245128D02*
X0233682Y0244370D01*
X0234181Y0243682D01*
X0234782Y0243081D01*
X0235470Y0242582D01*
X0236228Y0242196D01*
X0237036Y0241933D01*
X0237876Y0241800D01*
X0244701Y0241800D01*
X0244701Y0247201D01*
X0244701Y0247201D01*
X0244701Y0247201D01*
X0232900Y0247201D01*
X0232900Y0246776D01*
X0233033Y0245936D01*
X0233296Y0245128D01*
X0234882Y0243009D02*
X0146393Y0243009D01*
X0139193Y0250209D02*
X0155232Y0250209D01*
X0151160Y0252609D02*
X0143242Y0252609D01*
X0145452Y0255009D02*
X0148950Y0255009D01*
X0148950Y0257409D02*
X0145452Y0257409D01*
X0145225Y0259809D02*
X0149176Y0259809D01*
X0151577Y0262209D02*
X0142825Y0262209D01*
X0142642Y0267010D02*
X0151759Y0267010D01*
X0149359Y0269410D02*
X0145042Y0269410D01*
X0145452Y0271810D02*
X0148950Y0271810D01*
X0148950Y0274210D02*
X0145452Y0274210D01*
X0143424Y0276610D02*
X0150977Y0276610D01*
X0149959Y0283810D02*
X0144443Y0283810D01*
X0145452Y0286210D02*
X0148950Y0286210D01*
X0148950Y0288610D02*
X0145452Y0288610D01*
X0144024Y0291010D02*
X0150378Y0291010D01*
X0144530Y0293411D02*
X0132201Y0293411D01*
X0132201Y0295811D02*
X0142130Y0295811D01*
X0145452Y0300611D02*
X0148950Y0300611D01*
X0148950Y0303011D02*
X0145452Y0303011D01*
X0144623Y0305411D02*
X0149778Y0305411D01*
X0152178Y0307811D02*
X0142223Y0307811D01*
X0147652Y0298211D02*
X0150558Y0298211D01*
X0157223Y0307811D02*
X0167178Y0307811D01*
X0164778Y0305411D02*
X0159623Y0305411D01*
X0160452Y0303011D02*
X0163950Y0303011D01*
X0163950Y0300611D02*
X0160452Y0300611D01*
X0162652Y0298211D02*
X0165558Y0298211D01*
X0172223Y0307811D02*
X0260000Y0307811D01*
X0260000Y0305411D02*
X0174623Y0305411D01*
X0174250Y0298211D02*
X0173844Y0298211D01*
X0165977Y0276610D02*
X0158424Y0276610D01*
X0160452Y0274210D02*
X0163950Y0274210D01*
X0163950Y0271810D02*
X0160452Y0271810D01*
X0160042Y0269410D02*
X0164359Y0269410D01*
X0179170Y0250209D02*
X0233811Y0250209D01*
X0232929Y0247809D02*
X0176770Y0247809D01*
X0181570Y0252609D02*
X0235796Y0252609D01*
X0244701Y0245409D02*
X0244701Y0245409D01*
X0244701Y0243009D02*
X0244701Y0243009D01*
X0253717Y0315011D02*
X0260000Y0315011D01*
X0260000Y0317411D02*
X0256386Y0317411D01*
X0257830Y0319811D02*
X0260000Y0319811D01*
X0260000Y0322212D02*
X0258594Y0322212D01*
X0258850Y0324612D02*
X0260000Y0324612D01*
X0260000Y0327012D02*
X0258642Y0327012D01*
X0257933Y0329412D02*
X0260000Y0329412D01*
X0260000Y0331812D02*
X0256547Y0331812D01*
X0254026Y0334212D02*
X0259834Y0334212D01*
X0258649Y0336612D02*
X0132201Y0336612D01*
X0132201Y0334212D02*
X0240375Y0334212D01*
X0237855Y0331812D02*
X0132201Y0331812D01*
X0132201Y0329412D02*
X0236469Y0329412D01*
X0235759Y0327012D02*
X0132201Y0327012D01*
X0132201Y0324612D02*
X0235551Y0324612D01*
X0235807Y0322212D02*
X0132201Y0322212D01*
X0132201Y0319811D02*
X0236572Y0319811D01*
X0238015Y0317411D02*
X0132201Y0317411D01*
X0182201Y0221408D02*
X0182201Y0221408D01*
X0182201Y0219008D02*
X0182201Y0219008D01*
X0059701Y0055802D02*
X0059701Y0055802D01*
X0059701Y0053402D02*
X0059701Y0053402D01*
X0059701Y0051002D02*
X0059701Y0051002D01*
X0059701Y0048602D02*
X0059701Y0048602D01*
X0060544Y0046202D02*
X0044675Y0046202D01*
X0046842Y0043802D02*
X0057292Y0043802D01*
X0055718Y0041401D02*
X0048136Y0041401D01*
X0048779Y0039001D02*
X0054794Y0039001D01*
X0054794Y0036601D02*
X0048850Y0036601D01*
X0048458Y0034201D02*
X0055221Y0034201D01*
X0056215Y0031801D02*
X0047535Y0031801D01*
X0045876Y0029401D02*
X0058491Y0029401D01*
X0050714Y0048602D02*
X0039662Y0048602D01*
M02*
